# xmcd
#
# Track frame offsets:
#	150
#	16785
#	32092
#	48635
#	63813
#	89500
#	106401
#	122246
#	137145
#	152068
#	171975
#	198108
#	213794
#	233025
#	250356
#	266792
#	281572
#	298113
#	313622
#	325981
#	340598
#
# Disc length: 4792 seconds
#
# Revision: 0
# Processed by: cddbd v1.5.2PL0 Copyright (c) Steve Scherf et al.
# Submitted via: EasyCDDAExtractor 16.0.9.1
#
DISCID=3512b615
DTITLE=Various Artist - Club Rotation Vol.28
DYEAR=2004
DGENRE=Trance
TTITLE0=Starsplash - Hardstyle (Radio Mix)
TTITLE1=Paffendorf - Welcome To Africa (Short Cut)
TTITLE2=Groove Coverage - She (Radio Edit)
TTITLE3=Brooklyn Bounce - Crazy (Single Mix)
TTITLE4=Ru-D. - Everybody Jump (Radio Mix)
TTITLE5=Alex M. vs. Marc Van Damme - Technodisco (Radio Edit) 
TTITLE6=Bass-T - P.O.W.E.R. (Edit)
TTITLE7=2 Vibez - Trouble (Bass-T Remix Cut)
TTITLE8=Redwing - Rocket (Vocal Edit)
TTITLE9=DJ Zorneus  - The Crypt (Seikos and Shaun Baker Remix Edit)
TTITLE10=Ron Van Den Beuken - Endless (Radio Edit)  
TTITLE11=Marc Van Linden and Matys - AM 2 PM (Radio Edit)
TTITLE12=Robert Natus and Arkus P. - Hardcore Salsa (Original Radio Edit)
TTITLE13=Oliver Moldan - Beauty In L.A. (Main Mix Edit)
TTITLE14=Punk Division - Seven Nation Army (Punk Radio Edit)
TTITLE15=Benny Benassi Pres. The Biz - Love Is Gonna Save Us (Radio Edit)
TTITLE16=Moguai - Old 'N' New (Nature One 2004 Edit)
TTITLE17=Shapeshifters - Lola's Theme (Eric Prydz Remix Edit)
TTITLE18=Eric Prydz - Call On Me (Radio Edit )
TTITLE19=Erick Morillo feat. Audio Bully's - Break Down The Doors (Radio Mix)
TTITLE20=The Underdog Project - Remember (Radio Cut)
EXTD=
EXTT0=
EXTT1=
EXTT2=
EXTT3=
EXTT4=
EXTT5=
EXTT6=
EXTT7=
EXTT8=
EXTT9=
EXTT10=
EXTT11=
EXTT12=
EXTT13=
EXTT14=
EXTT15=
EXTT16=
EXTT17=
EXTT18=
EXTT19=
EXTT20=
PLAYORDER=
